<?xml version="1.0" encoding="UTF-8"?><svg id="Layer_2" xmlns="http://www.w3.org/2000/svg" viewBox="0 0 561.43 561.42"><g id="Layer_1-2"><path d="m61.74,97.97v11.52h17.01v52.5h12.08v-52.5h17.01v-11.52h-46.1Z"/><path d="m151.1,97.97v26.16h-20.67v-26.16h-12.07v64.02h12.07v-26.34h20.67v26.34h12.08v-64.02h-12.08Z"/><path d="m188.33,150.47v-14.82h27.26v-11.52h-27.26v-14.64h28.36v-11.52h-40.44v64.02h41.53v-11.52h-29.45Z"/><path d="m89.55,192.72l-3.66,48.11v9.33h-2.2v-9.33l-3.66-48.11h-21.22v64.03h10.98v-42.8l-1.1-14.65h2.2l4.94,57.45h18.1l4.76-57.45h2.2l-1.1,14.65v42.8h10.97v-64.03h-21.21Z"/><path d="m152.11,192.72h-22.69l-15.27,64.03h12.62l3.12-13.72h21.76l3.11,13.72h12.63l-15.28-64.03Zm-19.67,38.78l7.5-32.74h1.65l7.41,32.74h-16.56Z"/><path d="m213.85,198.25c-3.84-3.68-9.73-5.53-17.65-5.53h-23.24v11.53h6.04v40.88h-6.04v11.62h23.24c7.92,0,13.81-1.84,17.65-5.54,3.85-3.68,5.76-9.4,5.76-17.14v-18.66c0-7.75-1.91-13.46-5.76-17.16Zm-6.31,34.71c0,4.21-.84,7.31-2.52,9.29-1.67,1.99-4.62,2.98-8.82,2.98h-5.13v-40.98h5.13c4.2,0,7.15.95,8.82,2.83,1.68,1.89,2.52,4.67,2.52,8.33v17.55Z"/><path d="m273.94,219.93c1.4-2.28,2.11-4.74,2.11-7.36v-2.2c0-2.44-.44-4.72-1.33-6.86-.88-2.13-2.16-4.01-3.84-5.62-1.68-1.61-3.76-2.88-6.26-3.79-2.51-.92-5.4-1.38-8.7-1.38h-24.51v64.03h12.08v-24.14h13.9c1.77,0,3.03.45,3.79,1.36.76.92,1.15,2.11,1.15,3.57v19.21h12.07v-22.13c0-2.14-.62-3.9-1.87-5.32-1.26-1.39-2.94-2.22-5.08-2.46v-1.65c2.93-1.21,5.09-2.97,6.49-5.26Zm-9.96-6.72c0,2.51-.77,4.44-2.29,5.81-1.53,1.37-3.75,2.06-6.68,2.06h-11.52v-16.83h11.52c2.93,0,5.15.78,6.68,2.33,1.52,1.55,2.29,3.4,2.29,5.54v1.09Z"/><path d="m320.05,192.72h-22.68l-15.29,64.03h12.63l3.11-13.72h21.77l3.11,13.72h12.62l-15.27-64.03Zm-19.67,38.78l7.5-32.74h1.65l7.41,32.74h-16.56Z"/><path d="m383.53,224.64c-3.54-2.86-8.67-4.9-15.37-6.13-2.69-.49-4.89-1-6.63-1.55-1.74-.55-3.15-1.18-4.21-1.88-1.07-.7-1.81-1.49-2.24-2.37-.43-.89-.64-1.88-.64-2.97,0-2.14.88-3.83,2.65-5.08s4.18-1.87,7.23-1.87c3.6,0,6.39.94,8.37,2.83s2.97,4.12,2.97,6.68v2.19h12.07v-3.29c0-2.62-.5-5.12-1.5-7.5-1.01-2.38-2.51-4.48-4.49-6.31-1.98-1.83-4.43-3.28-7.36-4.35-2.93-1.06-6.28-1.6-10.06-1.6-3.35,0-6.39.46-9.1,1.37-2.72.92-5.03,2.2-6.95,3.84-1.93,1.65-3.42,3.59-4.48,5.81-1.07,2.23-1.6,4.65-1.6,7.28v.55c0,3.17.54,5.84,1.64,8.04,1.1,2.2,2.63,4.03,4.62,5.49,1.98,1.47,4.31,2.64,7,3.52,2.68.89,5.64,1.61,8.87,2.15,2.44.43,4.45.95,6.04,1.56,1.58.61,2.83,1.29,3.74,2.05.92.77,1.56,1.62,1.93,2.57.36.94.54,1.93.54,2.97,0,2.19-.88,4.08-2.65,5.67-1.77,1.59-4.48,2.38-8.14,2.38-4.69,0-8.16-1.15-10.38-3.43-2.22-2.29-3.34-5.35-3.34-9.19v-2.2h-12.07v2.75c0,3.35.55,6.44,1.64,9.28,1.1,2.83,2.72,5.3,4.85,7.41,2.14,2.1,4.81,3.74,8,4.93,3.21,1.19,6.91,1.79,11.12,1.79,3.59,0,6.83-.46,9.7-1.37,2.86-.91,5.3-2.23,7.31-3.93,2.01-1.71,3.56-3.77,4.62-6.18,1.07-2.41,1.6-5.1,1.6-8.09v-1.1c0-5.61-1.76-9.85-5.3-12.72Z"/><path d="m108.39,406.38v-1.65c0-3.65-.51-6.95-1.51-9.88-1.01-2.92-2.5-5.42-4.48-7.5-1.98-2.07-4.44-3.66-7.36-4.75-2.94-1.1-6.29-1.65-10.07-1.65s-6.95.59-9.88,1.78c-2.92,1.19-5.43,2.9-7.5,5.13-2.07,2.22-3.66,4.96-4.75,8.23-1.1,3.26-1.65,6.94-1.65,11.02v14.27c0,8.53,2.14,15.03,6.4,19.48,4.27,4.46,10.06,6.68,17.38,6.68s13.44-2.06,17.43-6.17c3.99-4.12,5.99-9.98,5.99-17.61v-1.65h-12.08v1.65c0,1.65-.14,3.25-.45,4.8-.31,1.56-.87,2.93-1.7,4.12-.82,1.19-1.98,2.13-3.47,2.84-1.49.69-3.4,1.04-5.72,1.04-2.14,0-3.95-.35-5.44-1.04-1.49-.71-2.7-1.7-3.61-2.98-.92-1.28-1.59-2.79-2.01-4.52-.43-1.75-.65-3.66-.65-5.73v-16.1c0-1.88.23-3.7.69-5.44.46-1.73,1.17-3.26,2.15-4.57s2.19-2.35,3.65-3.11c1.48-.76,3.21-1.14,5.22-1.14,2.2,0,4.03.38,5.49,1.14,1.46.76,2.62,1.76,3.47,2.97.86,1.22,1.47,2.59,1.83,4.12.37,1.52.55,3.05.55,4.57v1.65h12.08Z"/><path d="m158.1,387.81c-4.17-4.57-9.96-6.86-17.34-6.86s-13.15,2.29-17.32,6.86c-4.18,4.58-6.27,11.01-6.27,19.3v14.27c0,8.53,2.09,15.03,6.27,19.48,4.17,4.46,9.95,6.68,17.32,6.68s13.17-2.22,17.34-6.68c4.18-4.45,6.27-10.95,6.27-19.48v-14.27c0-8.29-2.09-14.72-6.27-19.3Zm-5.81,34.3c0,2.13-.18,4.08-.55,5.85-.36,1.77-1,3.3-1.92,4.58-.91,1.28-2.1,2.27-3.57,2.98-1.46.69-3.29,1.04-5.49,1.04s-4.02-.35-5.48-1.04c-1.46-.71-2.65-1.7-3.56-2.98-.92-1.28-1.56-2.81-1.93-4.58-.37-1.77-.55-3.72-.55-5.85v-15.73c0-2.01.22-3.9.65-5.67.41-1.77,1.09-3.29,2.01-4.58.91-1.28,2.1-2.3,3.56-3.06,1.46-.76,3.23-1.14,5.3-1.14s3.85.38,5.31,1.14c1.47.76,2.66,1.78,3.57,3.06.92,1.29,1.58,2.81,2.01,4.58.43,1.77.64,3.66.64,5.67v15.73Z"/><path d="m201.5,382.23l-3.65,48.11v9.33h-2.2v-9.33l-3.66-48.11h-21.22v64.03h10.97v-42.81l-1.09-14.64h2.19l4.94,57.45h18.11l4.76-57.45h2.2l-1.11,14.64v42.81h10.98v-64.03h-21.22Z"/><path d="m274.72,393.99c-.82-2.23-2.04-4.21-3.65-5.95-1.62-1.74-3.65-3.14-6.09-4.21-2.44-1.06-5.3-1.6-8.59-1.6h-25.07v64.03h12.07v-24.15h13c3.29,0,6.15-.55,8.59-1.65,2.44-1.09,4.47-2.54,6.09-4.34,1.61-1.8,2.83-3.84,3.65-6.13.83-2.28,1.24-4.62,1.24-7v-2.19c0-2.32-.41-4.59-1.24-6.81Zm-10.83,8.73c0,2.32-.78,4.21-2.34,5.67-1.56,1.46-3.68,2.2-6.35,2.2h-11.81v-16.83h11.81c2.67,0,4.79.72,6.35,2.19,1.56,1.47,2.34,3.36,2.34,5.67v1.1Z"/><path d="m320.05,382.23h-22.68l-15.29,64.03h12.63l3.11-13.72h21.77l3.11,13.72h12.62l-15.27-64.03Zm-19.67,38.78l7.5-32.74h1.65l7.41,32.74h-16.56Z"/><path d="m375.02,382.23v57.99h-1.65l-7.5-57.99h-23.6v64.03h12.08v-57.99h1.65l7.5,57.99h23.59v-64.03h-12.07Z"/><path d="m434.66,382.23l-13.17,30.55h-1.65l-13.17-30.55h-13.17l18.38,41.53h2.75v22.5h12.07v-22.5h2.74l18.39-41.53h-13.17Z"/><path d="m484.64,435.42c-.45-1.07-1.08-1.98-1.87-2.74-.8-.76-1.73-1.38-2.79-1.83-1.07-.46-2.18-.69-3.34-.69-1.22,0-2.34.23-3.38.69-1.04.45-1.96,1.07-2.74,1.83-.8.76-1.42,1.67-1.89,2.74-.45,1.07-.68,2.21-.68,3.43s.23,2.36.68,3.43c.47,1.07,1.09,1.98,1.89,2.75.78.76,1.7,1.36,2.74,1.83,1.04.45,2.16.68,3.38.68s2.27-.23,3.34-.68c1.06-.47,1.99-1.07,2.79-1.83.79-.77,1.42-1.68,1.87-2.75.46-1.07.69-2.21.69-3.43s-.23-2.36-.69-3.43Z"/><path d="m84.87,341.69c2.34,0,4.27-.35,5.78-1.06,1.51-.71,2.68-1.67,3.52-2.87.83-1.2,1.4-2.59,1.71-4.16.31-1.57.46-3.19.46-4.86v-1.66h12.21v1.66c0,7.71-2.02,13.65-6.06,17.81-4.04,4.16-9.92,6.25-17.63,6.25s-13.26-2.25-17.58-6.75c-4.32-4.5-6.48-11.07-6.48-19.71v-14.43c0-4.13.55-7.85,1.67-11.15,1.11-3.3,2.71-6.07,4.81-8.33,2.1-2.25,4.63-3.98,7.59-5.18s6.29-1.8,9.99-1.8,7.22.56,10.18,1.67,5.44,2.71,7.45,4.81c2,2.1,3.52,4.63,4.53,7.59s1.53,6.29,1.53,9.99v1.67h-12.21v-1.67c0-1.54-.18-3.08-.55-4.63-.37-1.54-.99-2.93-1.85-4.16-.86-1.23-2.04-2.24-3.52-3.01-1.48-.77-3.33-1.16-5.55-1.16-2.04,0-3.79.39-5.27,1.16-1.48.77-2.71,1.82-3.7,3.15-.99,1.33-1.71,2.87-2.17,4.62-.46,1.76-.69,3.59-.69,5.51v16.28c0,2.1.21,4.03.65,5.78.43,1.76,1.11,3.29,2.04,4.58.93,1.29,2.14,2.3,3.66,3.01,1.51.71,3.34,1.06,5.5,1.06Z"/><path d="m117.44,311.9c0-8.39,2.11-14.9,6.34-19.52,4.22-4.62,10.07-6.94,17.53-6.94s13.31,2.31,17.53,6.94c4.22,4.63,6.34,11.13,6.34,19.52v14.43c0,8.63-2.11,15.21-6.34,19.71-4.23,4.5-10.07,6.75-17.53,6.75s-13.31-2.25-17.53-6.75c-4.23-4.5-6.34-11.07-6.34-19.71v-14.43Zm23.87,29.79c2.22,0,4.07-.35,5.55-1.06s2.68-1.71,3.61-3.01c.93-1.29,1.57-2.84,1.94-4.63.37-1.79.55-3.76.55-5.92v-15.91c0-2.04-.22-3.95-.65-5.74-.43-1.79-1.11-3.33-2.04-4.63-.93-1.29-2.13-2.33-3.61-3.1-1.48-.77-3.27-1.16-5.37-1.16s-3.89.39-5.37,1.16c-1.48.77-2.68,1.8-3.61,3.1-.92,1.29-1.6,2.84-2.04,4.63-.43,1.79-.65,3.7-.65,5.74v15.91c0,2.16.18,4.13.55,5.92.37,1.79,1.02,3.33,1.94,4.63.92,1.29,2.13,2.3,3.61,3.01s3.33,1.06,5.55,1.06Z"/><path d="m173.88,286.73h23.5c8.02,0,13.97,1.87,17.86,5.6,3.89,3.73,5.83,9.52,5.83,17.35v18.88c0,7.83-1.94,13.62-5.83,17.35-3.89,3.73-9.84,5.6-17.86,5.6h-23.5v-11.75h6.11v-41.36h-6.11v-11.66Zm23.5,53.11c4.26,0,7.23-1,8.93-3.01,1.7-2,2.54-5.13,2.54-9.39v-17.76c0-3.7-.85-6.51-2.54-8.42-1.7-1.91-4.67-2.87-8.93-2.87h-5.18v41.45h5.18Z"/><path d="m232.91,286.73h43.3v11.66h-15.54v41.45h15.54v11.66h-43.3v-11.66h15.54v-41.45h-15.54v-11.66Z"/><path d="m319.97,345.39h1.67v-58.66h12.21v64.77h-23.87l-7.59-58.66h-1.67v58.66h-12.21v-64.77h23.87l7.59,58.66Z"/><path d="m363.55,318.75h27.76v32.75h-11.1v-7.22h-1.67c-.74,2.4-2.16,4.43-4.26,6.06-2.1,1.63-5.24,2.45-9.44,2.45-2.96,0-5.74-.55-8.33-1.67-2.59-1.11-4.84-2.76-6.75-4.95-1.91-2.19-3.42-4.9-4.53-8.14s-1.67-7.02-1.67-11.33v-15.17c0-4.19.6-7.91,1.8-11.15,1.2-3.24,2.87-5.97,5-8.19s4.67-3.9,7.63-5.04,6.23-1.71,9.81-1.71,7,.6,9.9,1.8c2.9,1.2,5.37,2.87,7.4,5,2.04,2.13,3.58,4.63,4.63,7.49,1.05,2.87,1.57,5.94,1.57,9.21v1.11h-12.21v-1.11c0-3.89-1-6.83-3.01-8.84-2-2-4.83-3.01-8.47-3.01s-6.29,1.16-8.51,3.47c-2.22,2.31-3.33,6.28-3.33,11.89v13.69c0,9.99,4.07,14.99,12.21,14.99,3.64,0,6.4-.97,8.28-2.91,1.88-1.94,2.82-4.55,2.82-7.82h-15.54v-11.66Z"/><path d="m0,0v561.42h561.43V0H0Zm551.28,551.27H10.15V10.15h541.13v541.12Z"/></g></svg>